<svg xmlns="http://www.w3.org/2000/svg"  viewBox="0 0 50 50" width="50px" height="50px"><path d="M 6 1 L 6 5 C 6 6.6449698 7.3550302 8 9 8 L 11 8 L 11 14.71875 C 11 17.726959 12.505418 20.539143 15.007812 22.207031 L 19.197266 25 L 15.007812 27.792969 C 12.505695 29.461797 11 32.273917 11 35.28125 L 11 42 L 9 42 C 7.3550302 42 6 43.35503 6 45 L 6 49 L 44 49 L 44 48 L 44 45 C 44 43.35503 42.64497 42 41 42 L 39 42 L 39 35.28125 C 39 32.273917 37.494306 29.461797 34.992188 27.792969 L 30.802734 25 L 34.992188 22.207031 C 37.494582 20.539143 39 17.726959 39 14.71875 L 39 8 L 41 8 C 42.64497 8 44 6.6449698 44 5 L 44 1 L 6 1 z M 8 3 L 42 3 L 42 5 C 42 5.5650302 41.56503 6 41 6 L 9 6 C 8.4349698 6 8 5.5650302 8 5 L 8 3 z M 13 8 L 37 8 L 37 14.71875 C 37 17.060541 35.830419 19.244857 33.882812 20.542969 L 27.197266 25 L 33.882812 29.457031 C 35.830694 30.756203 37 32.940583 37 35.28125 L 37 42 L 34.951172 42 C 34.238355 33.862477 25 30.777344 25 30.777344 C 25 30.777344 15.776533 34.027532 15.050781 42 L 13 42 L 13 35.28125 C 13 32.940583 14.169306 30.756203 16.117188 29.457031 L 22.802734 25 L 16.117188 20.542969 C 14.169582 19.244857 13 17.060541 13 14.71875 L 13 8 z M 18.074219 18 C 20.250219 20.856 25 22 25 22 C 25 22 29.703531 20.806 31.894531 18 L 18.074219 18 z M 9 44 L 41 44 C 41.56503 44 42 44.43497 42 45 L 42 47 L 8 47 L 8 45 C 8 44.43497 8.4349698 44 9 44 z"/></svg>