<svg xmlns="http://www.w3.org/2000/svg"  viewBox="0 0 50 50" width="50px" height="50px"><path d="M 4 4 L 4 10 A 1.0001 1.0001 0 1 0 6 10 L 6 6 L 10 6 A 1.0001 1.0001 0 1 0 10 4 L 4 4 z M 40 4 A 1.0001 1.0001 0 1 0 40 6 L 44 6 L 44 10 A 1.0001 1.0001 0 1 0 46 10 L 46 4 L 40 4 z M 23.119141 6.9765625 C 22.303473 6.9727527 21.406344 7.0225328 20.462891 7.1640625 C 16.689076 7.7301812 12.073573 9.8319953 9.1132812 15.539062 A 1.0001 1.0001 0 1 0 10.886719 16.460938 C 13.555427 11.316006 17.44083 9.6404594 20.759766 9.1425781 C 24.078701 8.6446969 26.720703 9.40625 26.720703 9.40625 A 1.0001 1.0001 0 1 0 27.279297 7.4863281 C 27.279297 7.4863281 26.517438 7.2642998 25.285156 7.1132812 C 24.669016 7.0377721 23.934808 6.9803723 23.119141 6.9765625 z M 23.429688 10.013672 C 22.408136 10.038556 21.335366 10.199938 20.214844 10.527344 C 15.084665 12.02691 12.041469 15.181199 10.763672 18.865234 C 9.6407168 22.102842 9.8253234 25.688461 10.830078 29 L 5 29 A 1.0001 1.0001 0 1 0 5 31 L 12.216797 31 L 15.261719 31 L 19.673828 31 A 1.0001 1.0001 0 0 0 20.078125 31 L 23.472656 31 A 1.0001 1.0001 0 0 0 23.734375 31 L 45 31 A 1.0001 1.0001 0 1 0 45 29 L 40.013672 29 A 1.0001 1.0001 0 0 0 38.955078 27.994141 A 1.0001 1.0001 0 0 0 38.507812 28.128906 C 37.931728 28.454144 37.354977 28.740013 36.777344 29 L 35.351562 29 C 36.391557 28.398618 37.488426 27.616518 38.65625 26.601562 A 1.0002558 1.0002558 0 1 0 37.34375 25.091797 C 34.887513 27.226513 32.888121 28.174127 31.328125 28.466797 C 29.768129 28.759467 28.623014 28.438907 27.6875 27.884766 C 25.816473 26.77648 24.931641 24.634766 24.931641 24.634766 A 1.0001 1.0001 0 0 0 24.005859 23.986328 A 1.0001 1.0001 0 0 0 23.068359 25.365234 C 23.068359 25.365234 23.8552 27.455046 25.794922 29 L 23.990234 29 C 23.217154 28.283399 22.667649 27.547671 22.474609 27.128906 C 22.022648 26.148125 21.900218 25.024559 22.083984 24.117188 C 22.267751 23.209816 22.708665 22.568253 23.361328 22.261719 C 23.835883 22.03875 24.150771 21.990661 24.333984 22.001953 C 24.517197 22.013243 24.605574 22.053733 24.753906 22.185547 C 25.050571 22.449169 25.441103 23.217565 25.828125 24.210938 C 26.881495 26.915008 30.583168 28.134829 34.089844 26.330078 A 1.000245 1.000245 0 0 0 34.828125 25.898438 C 35.870949 25.223418 36.878168 24.275109 37.771484 22.986328 A 1.0001 1.0001 0 0 0 37.826172 22.916016 A 1.0005838 1.0005838 0 0 0 37.832031 22.90625 A 1.0001 1.0001 0 0 0 37.837891 22.896484 A 1.0005838 1.0005838 0 0 0 37.878906 22.830078 A 1.0001 1.0001 0 0 0 37.933594 21.953125 C 37.933594 21.953125 36.545228 18.289869 33.669922 15.019531 C 31.513442 12.566778 28.384331 10.284491 24.433594 10.033203 C 24.104366 10.012262 23.770205 10.005377 23.429688 10.013672 z M 23.515625 11.994141 C 27.253863 11.876716 30.058358 13.940399 32.167969 16.339844 C 34.236428 18.692483 35.445595 21.23277 35.867188 22.201172 C 35.447481 22.762794 35.020792 23.243412 34.589844 23.630859 C 32.717733 17.357514 28.335564 14.212678 23.966797 14.009766 C 23.653218 13.995201 23.339791 13.996108 23.027344 14.011719 C 18.028194 14.261496 13.415209 18.325111 13.013672 24.796875 C 12.935122 26.070626 13.20036 27.510352 13.757812 29 L 12.943359 29 C 11.878542 25.850102 11.644201 22.431752 12.654297 19.519531 C 13.7335 16.408067 16.148569 13.799699 20.775391 12.447266 C 21.74043 12.165293 22.652955 12.021239 23.515625 11.994141 z M 23.880859 16.005859 C 27.511832 16.154323 31.262718 18.718767 32.833984 24.783203 C 32.544713 24.910834 32.258217 25.016174 31.978516 25.085938 A 1.0001 1.0001 0 0 0 31.953125 25.003906 C 30.668892 20.949617 28.69359 18.551717 26.455078 17.542969 C 25.89545 17.290782 25.326187 17.132457 24.759766 17.058594 C 24.547357 17.030895 24.335878 17.01429 24.125 17.009766 C 22.648854 16.978095 21.226473 17.502102 20.09375 18.400391 C 17.844382 20.184486 16.957199 22.510187 17.001953 24.703125 C 17.033305 26.23948 17.481931 27.703426 18.125 29 L 15.935547 29 C 15.260233 27.449526 14.945225 25.966493 15.009766 24.919922 C 15.358037 19.321003 19.125101 16.209714 23.126953 16.009766 C 23.3771 15.997267 23.628716 15.99555 23.880859 16.005859 z M 23.917969 18.992188 C 24.47642 18.986103 25.053707 19.10339 25.634766 19.365234 C 27.111739 20.030809 28.708841 21.749606 29.873047 25.119141 C 28.780494 24.858572 27.966627 24.190885 27.691406 23.484375 C 27.291428 22.457747 26.923366 21.437081 26.082031 20.689453 C 25.661364 20.315639 25.083568 20.044474 24.457031 20.005859 C 23.830494 19.967249 23.189664 20.132641 22.511719 20.451172 C 21.186382 21.073638 20.402234 22.351825 20.125 23.720703 C 19.847766 25.089581 20.02816 26.597625 20.658203 27.964844 C 20.812972 28.300589 21.036238 28.648938 21.292969 29 L 20.425781 29 C 19.628673 27.70865 19.03254 26.160878 19.001953 24.662109 C 18.967953 22.996298 19.526258 21.403701 21.337891 19.966797 C 22.107231 19.356684 22.987217 19.002328 23.917969 18.992188 z M 13.994141 32.988281 A 1.0001 1.0001 0 0 0 13.222656 34.628906 C 17.225988 39.568219 24.346683 43.119047 31.205078 41.683594 A 1.0001 1.0001 0 1 0 30.794922 39.726562 C 24.877317 40.965109 18.336012 37.761781 14.777344 33.371094 A 1.0001 1.0001 0 0 0 13.994141 32.988281 z M 18.978516 32.990234 A 1.0001 1.0001 0 0 0 18.300781 34.714844 C 21.829999 38.167643 28.132492 40.59812 36.332031 37.703125 A 1.0001 1.0001 0 1 0 35.667969 35.816406 C 28.091508 38.491412 22.728001 36.248357 19.699219 33.285156 A 1.0001 1.0001 0 0 0 18.978516 32.990234 z M 24.986328 33.058594 A 1.0001 1.0001 0 0 0 24.369141 34.84375 C 25.733114 35.952105 27.619134 36.09919 29.445312 35.990234 C 31.271493 35.881279 33.071826 35.457471 34.333984 35.009766 A 1.0001 1.0001 0 1 0 33.666016 33.125 C 32.605174 33.501295 30.914992 33.899346 29.326172 33.994141 C 27.737352 34.088931 26.283886 33.821661 25.630859 33.291016 A 1.0001 1.0001 0 0 0 24.986328 33.058594 z M 4.984375 38.986328 A 1.0001 1.0001 0 0 0 4 40 L 4 46 L 10 46 A 1.0001 1.0001 0 1 0 10 44 L 6 44 L 6 40 A 1.0001 1.0001 0 0 0 4.984375 38.986328 z M 44.984375 38.986328 A 1.0001 1.0001 0 0 0 44 40 L 44 44 L 40 44 A 1.0001 1.0001 0 1 0 40 46 L 46 46 L 46 40 A 1.0001 1.0001 0 0 0 44.984375 38.986328 z"/></svg>