<svg xmlns="http://www.w3.org/2000/svg"  viewBox="0 0 50 50" width="50px" height="50px"><path d="M 15 2 C 12.250421 2 10 4.2504209 10 7 C 10 9.7495791 12.250421 12 15 12 C 17.749579 12 20 9.7495791 20 7 C 20 4.2504209 17.749579 2 15 2 z M 19.888672 2 C 20.475672 2.574 20.957453 3.251 21.314453 4 L 31 4 L 31 16 L 43 16 L 43 46 L 22.857422 46 L 22.751953 48 L 45 48 L 45 14.585938 L 32.414062 2 L 19.888672 2 z M 15 4 C 16.668699 4 18 5.3313011 18 7 C 18 8.6686989 16.668699 10 15 10 C 13.331301 10 12 8.6686989 12 7 C 12 5.3313011 13.331301 4 15 4 z M 33 5.4140625 L 41.585938 14 L 33 14 L 33 5.4140625 z M 15 13 C 9.4886661 13 5 17.488666 5 23 L 5 32.677734 L 8.5195312 34.083984 L 9.2519531 48 L 20.748047 48 L 21.480469 34.083984 L 25 32.677734 L 25 23 C 25 17.488666 20.511334 13 15 13 z M 14 15.068359 L 14 16 L 16 16 L 16 15.068359 C 19.954585 15.558778 23 18.908845 23 23 L 23 31.322266 L 19.550781 32.703125 L 18.851562 46 L 11.148438 46 L 10.449219 32.703125 L 7 31.322266 L 7 23 C 7 18.908845 10.045415 15.558778 14 15.068359 z M 14 17 L 14 27 L 16 27 L 16 17 L 14 17 z"/></svg>