<svg xmlns="http://www.w3.org/2000/svg"  viewBox="0 0 50 50" width="50px" height="50px"><path d="M 0 0 L 0 9 L 2 9 L 2 2 L 9 2 L 9 0 Z M 13 0 L 13 2 L 23 2 L 23 0 Z M 27 0 L 27 2 L 37 2 L 37 0 Z M 41 0 L 41 2 L 48 2 L 48 9 L 50 9 L 50 0 Z M 11 12 L 11 14 L 39 14 L 39 12 Z M 0 13 L 0 23 L 2 23 L 2 13 Z M 48 13 L 48 23 L 50 23 L 50 13 Z M 11 20 L 11 22 L 35 22 L 35 20 Z M 0 27 L 0 37 L 2 37 L 2 27 Z M 48 27 L 48 37 L 50 37 L 50 27 Z M 11 28 L 11 30 L 39 30 L 39 28 Z M 11 36 L 11 38 L 35 38 L 35 36 Z M 0 41 L 0 50 L 9 50 L 9 48 L 2 48 L 2 41 Z M 48 41 L 48 48 L 41 48 L 41 50 L 50 50 L 50 41 Z M 13 48 L 13 50 L 23 50 L 23 48 Z M 27 48 L 27 50 L 37 50 L 37 48 Z"/></svg>