<svg xmlns="http://www.w3.org/2000/svg"  viewBox="0 0 50 50" width="50px" height="50px"><path d="M 4.8457031 6 C 3.2714548 6 2 7.3206244 2 8.8925781 L 2 43 A 1.0001 1.0001 0 0 0 3 44 L 47 44 A 1.0001 1.0001 0 0 0 48 43 L 48 8.8925781 C 48 7.3206244 46.728545 6 45.154297 6 L 4.8457031 6 z M 4.8457031 8 L 45.154297 8 C 45.620049 8 46 8.3745319 46 8.8925781 L 46 18 L 4 18 L 4 8.8925781 C 4 8.3745319 4.3799515 8 4.8457031 8 z M 19 10 L 19 11 L 19 16 L 43 16 L 43 10 L 19 10 z M 8 11 A 2 2 0 0 0 6 13 A 2 2 0 0 0 8 15 A 2 2 0 0 0 10 13 A 2 2 0 0 0 8 11 z M 14 11 A 2 2 0 0 0 12 13 A 2 2 0 0 0 14 15 A 2 2 0 0 0 16 13 A 2 2 0 0 0 14 11 z M 21 12 L 41 12 L 41 14 L 21 14 L 21 12 z M 4 20 L 46 20 L 46 42 L 4 42 L 4 20 z M 13.970703 24 C 12.279703 24 11.37075 24.87 11.09375 26.125 C 11.03275 26.4 11.002 26.693 11 27 C 10.997 27.508 11.102188 28.052375 11.242188 28.609375 C 11.133188 28.677375 10.955 28.89425 11 29.28125 C 11.084 30.00125 11.370781 30.183219 11.550781 30.199219 C 11.620781 30.870219 12.255328 31.667016 12.486328 31.791016 C 12.486328 32.270016 12.503031 32.635156 12.457031 33.160156 C 11.904031 34.694156 8.172 34.264656 8 37.222656 L 8 38 L 20 38 L 20 37.222656 C 19.828 34.264656 16.111594 34.694156 15.558594 33.160156 C 15.512594 32.635156 15.529297 32.270016 15.529297 31.791016 C 15.760297 31.666016 16.379219 30.870219 16.449219 30.199219 C 16.631219 30.183219 16.917953 30.00125 17.001953 29.28125 C 17.046953 28.89425 16.866812 28.678375 16.757812 28.609375 C 16.867812 28.265375 17 27.649 17 27 C 17 26.702 16.979828 26.405 16.923828 26.125 C 16.768828 25.348 16.353969 24.706266 15.417969 24.572266 C 15.207969 24.191266 14.668703 24 13.970703 24 z M 26 26 L 26 28 L 27 28 L 41 28 L 42 28 L 42 26 L 41 26 L 27 26 L 26 26 z M 26 31 L 26 33 L 27 33 L 41 33 L 42 33 L 42 31 L 41 31 L 27 31 L 26 31 z M 26 36 L 26 38 L 27 38 L 38 38 L 39 38 L 39 36 L 38 36 L 27 36 L 26 36 z"/></svg>